<svg width="441" height="304" viewBox="0 0 441 304" fill="none" xmlns="http://www.w3.org/2000/svg">
<path d="M42.533 116.164C42.808 115.499 46.402 113.346 47.156 112.862C55.985 107.184 66.796 103.097 77.078 101.1C80.92 100.354 84.774 99.786 88.675 99.467C89.352 99.411 92.507 99.436 92.954 99.142C93.503 98.782 96.135 91.51 96.549 90.555C100.354 81.785 104.336 73.066 109.573 65.041C123.819 43.213 144.777 25.486 168.094 13.874C198.66 -1.35003 234.003 -3.56802 266.387 7.42198C296.601 17.676 322.086 41.584 336.178 69.993C344.596 87.048 347.748 104.377 349.833 123.084C374.243 123.258 396.201 131.119 413.537 148.668C431.203 166.552 440.951 192.236 440.711 217.25C440.489 240.384 430.136 262.551 413.564 278.562C393.34 298.101 367.811 303.838 340.486 303.268L161.437 302.869L118.351 302.847C105.497 302.835 91.747 303.687 79.156 300.763C59.74 296.253 41.72 285.593 27.984 271.235C9.54 251.954 -0.448001 224.178 0.207999 197.649C0.904999 169.473 11.724 143.979 32.352 124.486C35.53 121.483 38.892 118.594 42.533 116.164Z" fill="url(#paint0_linear_2_3)"/>
<defs>
<linearGradient id="paint0_linear_2_3" x1="231.706" y1="315.983" x2="198.351" y2="2.31329" gradientUnits="userSpaceOnUse">
<stop stop-color="#4790AB"/>
<stop offset="1" stop-color="#ADD6AD"/>
</linearGradient>
</defs>
</svg>
